TITLE ""
FILE "Disc4Track48.mp3" MP3
  TRACK 01 AUDIO
    TITLE "Disc4Track48_01"
    INDEX 01 00:00:00
  TRACK 02 AUDIO
    TITLE "Disc4Track48_02"
    INDEX 01 00:01:14
  TRACK 03 AUDIO
    TITLE "Disc4Track48_03"
    INDEX 01 00:02:11
  TRACK 04 AUDIO
    TITLE "Disc4Track48_04"
    INDEX 01 00:03:36
  TRACK 05 AUDIO
    TITLE "Disc4Track48_05"
    INDEX 01 00:03:73
  TRACK 06 AUDIO
    TITLE "Disc4Track48_06"
    INDEX 01 00:05:15
  TRACK 07 AUDIO
    TITLE "Disc4Track48_07"
    INDEX 01 00:07:38
  TRACK 08 AUDIO
    TITLE "Disc4Track48_08"
    INDEX 01 00:08:57
  TRACK 09 AUDIO
    TITLE "Disc4Track48_09"
    INDEX 01 00:14:32
  TRACK 10 AUDIO
    TITLE "Disc4Track48_10"
    INDEX 01 00:14:63
  TRACK 11 AUDIO
    TITLE "Disc4Track48_11"
    INDEX 01 00:16:07
  TRACK 12 AUDIO
    TITLE "Disc4Track48_12"
    INDEX 01 00:17:17
  TRACK 13 AUDIO
    TITLE "Disc4Track48_13"
    INDEX 01 00:18:40
  TRACK 14 AUDIO
    TITLE "Disc4Track48_14"
    INDEX 01 00:19:02
  TRACK 15 AUDIO
    TITLE "Disc4Track48_15"
    INDEX 01 00:20:19
  TRACK 16 AUDIO
    TITLE "Disc4Track48_16"
    INDEX 01 00:22:71
  TRACK 17 AUDIO
    TITLE "Disc4Track48_17"
    INDEX 01 00:24:15
  TRACK 18 AUDIO
    TITLE "Disc4Track48_18"
    INDEX 01 00:24:54
  TRACK 19 AUDIO
    TITLE "Disc4Track48_19"
    INDEX 01 00:25:71
  TRACK 20 AUDIO
    TITLE "Disc4Track48_20"
    INDEX 01 00:27:07
  TRACK 21 AUDIO
    TITLE "Disc4Track48_21"
    INDEX 01 00:28:20
  TRACK 22 AUDIO
    TITLE "Disc4Track48_22"
    INDEX 01 00:35:40
  TRACK 23 AUDIO
    TITLE "Disc4Track48_23"
    INDEX 01 00:36:06
  TRACK 24 AUDIO
    TITLE "Disc4Track48_24"
    INDEX 01 00:37:23
  TRACK 25 AUDIO
    TITLE "Disc4Track48_25"
    INDEX 01 00:39:04
  TRACK 26 AUDIO
    TITLE "Disc4Track48_26"
    INDEX 01 00:40:22
  TRACK 27 AUDIO
    TITLE "Disc4Track48_27"
    INDEX 01 00:40:59
  TRACK 28 AUDIO
    TITLE "Disc4Track48_28"
    INDEX 01 00:42:19
  TRACK 29 AUDIO
    TITLE "Disc4Track48_29"
    INDEX 01 00:43:41
  TRACK 30 AUDIO
    TITLE "Disc4Track48_30"
    INDEX 01 00:44:74
  TRACK 31 AUDIO
    TITLE "Disc4Track48_31"
    INDEX 01 00:50:08
  TRACK 32 AUDIO
    TITLE "Disc4Track48_32"
    INDEX 01 00:50:36
  TRACK 33 AUDIO
    TITLE "Disc4Track48_33"
    INDEX 01 00:51:63
  TRACK 34 AUDIO
    TITLE "Disc4Track48_34"
    INDEX 01 00:52:62
  TRACK 35 AUDIO
    TITLE "Disc4Track48_35"
    INDEX 01 00:54:14
  TRACK 36 AUDIO
    TITLE "Disc4Track48_36"
    INDEX 01 00:54:53
  TRACK 37 AUDIO
    TITLE "Disc4Track48_37"
    INDEX 01 00:56:05
  TRACK 38 AUDIO
    TITLE "Disc4Track48_38"
    INDEX 01 00:57:02
  TRACK 39 AUDIO
    TITLE "Disc4Track48_39"
    INDEX 01 00:58:29
  TRACK 40 AUDIO
    TITLE "Disc4Track48_40"
    INDEX 01 01:01:33
  TRACK 41 AUDIO
    TITLE "Disc4Track48_41"
    INDEX 01 01:01:65
  TRACK 42 AUDIO
    TITLE "Disc4Track48_42"
    INDEX 01 01:02:74
  TRACK 43 AUDIO
    TITLE "Disc4Track48_43"
    INDEX 01 01:04:01
  TRACK 44 AUDIO
    TITLE "Disc4Track48_44"
    INDEX 01 01:05:10
  TRACK 45 AUDIO
    TITLE "Disc4Track48_45"
    INDEX 01 01:05:47
  TRACK 46 AUDIO
    TITLE "Disc4Track48_46"
    INDEX 01 01:06:70
  TRACK 47 AUDIO
    TITLE "Disc4Track48_47"
    INDEX 01 01:08:02
  TRACK 48 AUDIO
    TITLE "Disc4Track48_48"
    INDEX 01 01:09:23
  TRACK 49 AUDIO
    TITLE "Disc4Track48_49"
    INDEX 01 01:11:01
  TRACK 50 AUDIO
    TITLE "Disc4Track48_50"
    INDEX 01 01:11:34
  TRACK 51 AUDIO
    TITLE "Disc4Track48_51"
    INDEX 01 01:12:57
  TRACK 52 AUDIO
    TITLE "Disc4Track48_52"
    INDEX 01 01:14:60
  TRACK 53 AUDIO
    TITLE "Disc4Track48_53"
    INDEX 01 01:16:06
  TRACK 54 AUDIO
    TITLE "Disc4Track48_54"
    INDEX 01 01:17:64
  TRACK 55 AUDIO
    TITLE "Disc4Track48_55"
    INDEX 01 01:18:22
  TRACK 56 AUDIO
    TITLE "Disc4Track48_56"
    INDEX 01 01:19:53
  TRACK 57 AUDIO
    TITLE "Disc4Track48_57"
    INDEX 01 01:20:52
  TRACK 58 AUDIO
    TITLE "Disc4Track48_58"
    INDEX 01 01:22:08
  TRACK 59 AUDIO
    TITLE "Disc4Track48_59"
    INDEX 01 01:24:07
  TRACK 60 AUDIO
    TITLE "Disc4Track48_60"
    INDEX 01 01:24:40
  TRACK 61 AUDIO
    TITLE "Disc4Track48_61"
    INDEX 01 01:26:02
  TRACK 62 AUDIO
    TITLE "Disc4Track48_62"
    INDEX 01 01:27:68
  TRACK 63 AUDIO
    TITLE "Disc4Track48_63"
    INDEX 01 01:29:32
  TRACK 64 AUDIO
    TITLE "Disc4Track48_64"
    INDEX 01 01:29:71
  TRACK 65 AUDIO
    TITLE "Disc4Track48_65"
    INDEX 01 01:31:39
  TRACK 66 AUDIO
    TITLE "Disc4Track48_66"
    INDEX 01 01:32:61
  TRACK 67 AUDIO
    TITLE "Disc4Track48_67"
    INDEX 01 01:34:31
  TRACK 68 AUDIO
    TITLE "Disc4Track48_68"
    INDEX 01 01:36:67
